# Blender 3.4.1
# www.blender.org
o bevelCube
v -1.019984 1.019899 1.115754
v -1.019984 1.121485 1.014168
v -1.121570 1.019899 1.014168
v -1.019984 1.121485 -1.014168
v -1.019984 1.019899 -1.115754
v -1.121570 1.019899 -1.014168
v -1.019984 -1.019899 1.115754
v -1.121570 -1.019899 1.014168
v -1.019984 -1.121485 1.014168
v -1.019984 -1.019899 -1.115754
v -1.019984 -1.121485 -1.014168
v -1.121570 -1.019899 -1.014168
v 1.019984 1.019899 1.115754
v 1.121570 1.019899 1.014168
v 1.019984 1.121485 1.014168
v 1.019984 1.019899 -1.115754
v 1.019984 1.121485 -1.014168
v 1.121570 1.019899 -1.014168
v 1.019984 -1.019899 1.115754
v 1.019984 -1.121485 1.014168
v 1.121570 -1.019899 1.014168
v 1.019984 -1.019899 -1.115754
v 1.121570 -1.019899 -1.014168
v 1.019984 -1.121485 -1.014168
vn 0.0462 0.9978 0.0465
vn 0.0462 0.9978 -0.0465
vn -0.0462 0.9978 -0.0465
vn -0.0462 0.9978 0.0465
vn 0.9978 -0.0462 0.0465
vn 0.9978 -0.0462 -0.0465
vn 0.9978 0.0462 -0.0465
vn 0.9978 0.0462 0.0465
vn 0.0462 -0.0463 -0.9979
vn -0.0463 -0.0462 -0.9979
vn -0.0462 0.0463 -0.9979
vn 0.0463 0.0462 -0.9979
vn -0.9978 0.0462 0.0465
vn -0.9978 0.0462 -0.0465
vn -0.9978 -0.0462 -0.0465
vn -0.9978 -0.0462 0.0465
vn -0.0462 -0.9978 0.0465
vn -0.0462 -0.9978 -0.0465
vn 0.0462 -0.9978 -0.0465
vn 0.0462 -0.9978 0.0465
vn -0.0463 0.0462 0.9979
vn -0.0462 -0.0463 0.9979
vn 0.0462 0.0463 0.9979
vn 0.0463 -0.0462 0.9979
vt 0.012827 0.139698
vt 0.863649 0.739557
vt 0.712784 0.004125
vt 0.011282 0.148346
vt 0.004134 0.141176
vt 0.703731 0.004125
vt 0.712784 0.166873
vt 0.700902 0.739557
vt 0.437787 0.140170
vt 0.703731 0.175925
vt 0.691849 0.739557
vt 0.696375 0.731717
vt 0.703731 0.166873
vt 0.012822 0.013445
vt 0.004129 0.011967
vt 0.577023 0.004125
vt 0.567970 0.004125
vt 0.011279 0.004797
vt 0.437782 0.013165
vt 0.572497 0.174713
vt 0.577023 0.175925
vt 0.567970 0.175925
vt 0.567970 0.166873
vt 0.577023 0.166873
vt 0.134452 0.139895
vt 0.142343 0.144511
vt 0.143514 0.139981
vt 0.863649 0.861482
vt 0.143508 0.149046
vt 0.134401 0.149037
vt 0.314310 0.144629
vt 0.315555 0.140135
vt 0.691849 0.861482
vt 0.306457 0.149156
vt 0.700902 0.861482
vt 0.306464 0.140092
vt 0.134470 0.013279
vt 0.446046 0.004125
vt 0.134421 0.004136
vt 0.143544 0.004142
vt 0.142364 0.008665
vt 0.143545 0.013206
vt 0.314344 0.008668
vt 0.446045 0.175925
vt 0.315573 0.013170
vt 0.306494 0.013200
vt 0.446046 0.166873
vt 0.306494 0.004136
s 1
f 15/28/1 17/35/2 4/8/3 2/2/4
f 21/42/5 23/46/6 18/36/7 14/27/8
f 22/45/9 10/19/10 5/9/11 16/32/12
f 3/6/13 6/13/14 12/24/15 8/16/16
f 9/17/17 11/23/18 24/47/19 20/38/20
f 1/1/21 2/4/4 3/5/13
f 4/8/3 5/11/11 6/12/14
f 7/14/22 8/15/16 9/18/17
f 10/20/10 11/23/18 12/24/15
f 13/25/23 14/26/8 15/30/1
f 16/31/12 17/34/2 18/36/7
f 19/37/24 20/39/20 21/41/5
f 22/43/9 23/46/6 24/48/19
f 7/14/22 1/1/21 3/5/13 8/15/16
f 2/3/4 4/7/3 6/13/14 3/6/13
f 5/10/11 10/21/10 12/24/15 6/13/14
f 11/23/18 9/17/17 8/16/16 12/24/15
f 19/37/24 7/14/22 9/18/17 20/39/20
f 10/22/10 22/44/9 24/47/19 11/23/18
f 23/46/6 21/42/5 20/40/20 24/48/19
f 13/25/23 19/37/24 21/42/5 14/27/8
f 22/45/9 16/32/12 18/36/7 23/46/6
f 17/34/2 15/29/1 14/27/8 18/36/7
f 1/1/21 13/25/23 15/30/1 2/4/4
f 16/33/12 5/11/11 4/8/3 17/35/2
f 7/14/22 19/37/24 13/25/23 1/1/21
