# Blender 3.4.1
# www.blender.org
o dodecahedron
v 0.821798 -0.906333 -0.874043
v 0.874043 -0.821798 -0.906333
v 0.906333 -0.874043 -0.821798
v 0.874043 -0.821798 0.906333
v 0.821798 -0.906333 0.874043
v 0.906333 -0.874043 0.821798
v 0.821798 0.906333 -0.874043
v 0.906333 0.874043 -0.821798
v 0.874043 0.821798 -0.906333
v 0.874043 0.821798 0.906333
v 0.906333 0.874043 0.821798
v 0.821798 0.906333 0.874043
v -0.874043 -0.821798 -0.906333
v -0.821798 -0.906333 -0.874043
v -0.906333 -0.874043 -0.821798
v -0.821798 -0.906333 0.874043
v -0.874043 -0.821798 0.906333
v -0.906333 -0.874043 0.821798
v -0.906333 0.874043 -0.821798
v -0.821798 0.906333 -0.874043
v -0.874043 0.821798 -0.906333
v -0.906333 0.874043 0.821798
v -0.874043 0.821798 0.906333
v -0.821798 0.906333 0.874043
v 0.592434 -1.381942 -0.000000
v 0.507899 -1.414232 0.052246
v 0.507899 -1.414232 -0.052246
v -0.507899 -1.414232 0.052246
v -0.592434 -1.381942 0.000000
v -0.507899 -1.414232 -0.052246
v 0.592434 1.381942 0.000000
v 0.507899 1.414232 -0.052246
v 0.507899 1.414232 0.052246
v -0.592434 1.381942 -0.000000
v -0.507899 1.414232 0.052246
v -0.507899 1.414232 -0.052246
v 1.381942 -0.000000 -0.592434
v 1.414232 0.052246 -0.507899
v 1.414232 -0.052246 -0.507899
v 1.414232 0.052246 0.507899
v 1.381942 0.000000 0.592434
v 1.414232 -0.052246 0.507899
v -1.381942 0.000000 -0.592434
v -1.414232 -0.052246 -0.507899
v -1.414232 0.052246 -0.507899
v -1.414232 0.052246 0.507899
v -1.414232 -0.052246 0.507899
v -1.381942 -0.000000 0.592434
v 0.000000 -0.592434 -1.381942
v -0.052246 -0.507899 -1.414232
v 0.052246 -0.507899 -1.414232
v 0.052246 0.507899 -1.414232
v -0.052246 0.507899 -1.414232
v -0.000000 0.592434 -1.381942
v -0.052246 -0.507899 1.414232
v -0.000000 -0.592434 1.381942
v 0.052246 -0.507899 1.414232
v 0.052246 0.507899 1.414232
v 0.000000 0.592434 1.381942
v -0.052246 0.507899 1.414232
vn 0.0279 -0.8699 -0.4924
vn -0.0279 -0.8699 -0.4924
vn -0.0452 -0.8420 -0.5376
vn -0.0000 -0.8247 -0.5656
vn 0.0452 -0.8420 -0.5376
vn 0.4924 0.0279 0.8699
vn 0.4924 -0.0279 0.8699
vn 0.5376 -0.0452 0.8420
vn 0.5656 -0.0000 0.8247
vn 0.5376 0.0452 0.8420
vn -0.0279 0.8699 -0.4924
vn 0.0279 0.8699 -0.4924
vn 0.0452 0.8420 -0.5376
vn -0.0000 0.8247 -0.5656
vn -0.0452 0.8420 -0.5376
vn 0.0452 -0.8420 0.5376
vn -0.0000 -0.8247 0.5656
vn -0.0452 -0.8420 0.5376
vn -0.0279 -0.8699 0.4924
vn 0.0279 -0.8699 0.4924
vn 0.4924 -0.0279 -0.8699
vn 0.4924 0.0279 -0.8699
vn 0.5376 0.0452 -0.8420
vn 0.5656 -0.0000 -0.8247
vn 0.5376 -0.0452 -0.8420
vn -0.0000 0.8247 0.5656
vn 0.0452 0.8420 0.5376
vn 0.0279 0.8699 0.4924
vn -0.0279 0.8699 0.4924
vn -0.0452 0.8420 0.5376
vn -0.8247 0.5656 -0.0000
vn -0.8420 0.5376 -0.0452
vn -0.8699 0.4924 -0.0279
vn -0.8699 0.4924 0.0279
vn -0.8420 0.5376 0.0452
vn -0.5656 -0.0000 0.8247
vn -0.5376 -0.0452 0.8420
vn -0.4924 -0.0279 0.8699
vn -0.4924 0.0279 0.8699
vn -0.5376 0.0452 0.8420
vn -0.5376 -0.0452 -0.8420
vn -0.5656 -0.0000 -0.8247
vn -0.5376 0.0452 -0.8420
vn -0.4924 0.0279 -0.8699
vn -0.4924 -0.0279 -0.8699
vn 0.8420 0.5376 -0.0452
vn 0.8247 0.5656 -0.0000
vn 0.8420 0.5376 0.0452
vn 0.8699 0.4924 0.0279
vn 0.8699 0.4924 -0.0279
vn -0.8420 -0.5376 0.0452
vn -0.8699 -0.4924 0.0279
vn -0.8699 -0.4924 -0.0279
vn -0.8420 -0.5376 -0.0452
vn -0.8247 -0.5656 -0.0000
vn 0.8420 -0.5376 -0.0452
vn 0.8420 -0.5376 0.0452
vn 0.8247 -0.5656 -0.0000
vn 0.8699 -0.4925 -0.0279
vn 0.8699 -0.4924 0.0279
vt 0.258822 0.855345
vt 0.608211 0.870235
vt 0.429087 0.437154
vt 0.257079 0.848381
vt 0.264326 0.850722
vt 0.423249 0.432941
vt 0.308488 0.398781
vt 0.311144 0.392160
vt 0.688801 0.333867
vt 0.684628 0.328030
vt 0.315590 0.398261
vt 0.418257 0.566022
vt 0.605151 0.750657
vt 0.419054 0.573112
vt 0.412338 0.570717
vt 0.607464 0.757549
vt 0.242558 0.489596
vt 0.516874 0.640527
vt 0.512077 0.635241
vt 0.803847 0.107141
vt 0.236737 0.493808
vt 0.518923 0.633244
vt 0.468086 0.870235
vt 0.628014 0.520371
vt 0.185526 0.946919
vt 0.192689 0.946421
vt 0.632190 0.514544
vt 0.189995 0.953087
vt 0.722831 0.441186
vt 0.866394 0.285610
vt 0.729266 0.444494
vt 0.722831 0.447808
vt 0.481852 0.980990
vt 0.449052 0.456710
vt 0.481354 0.988152
vt 0.471165 0.750617
vt 0.468847 0.757507
vt 0.475186 0.983683
vt 0.572927 0.914857
vt 0.577551 0.909352
vt 0.897477 0.177323
vt 0.897229 0.170165
vt 0.579892 0.916600
vt 0.305783 0.907807
vt 0.628014 0.368614
vt 0.382018 0.376491
vt 0.305784 0.915409
vt 0.632189 0.374438
vt 0.299704 0.911608
vt 0.264339 0.972489
vt 0.653284 0.440859
vt 0.257110 0.974842
vt 0.653285 0.448130
vt 0.258843 0.967885
vt 0.488146 0.570385
vt 0.488372 0.563254
vt 0.862733 0.058352
vt 0.858726 0.064289
vt 0.494650 0.567463
vt 0.551407 0.981000
vt 0.916439 0.103240
vt 0.558055 0.983685
vt 0.507417 0.495698
vt 0.551903 0.988152
vt 0.920446 0.097303
vt 0.648788 0.813621
vt 0.388123 0.493808
vt 0.393352 0.638187
vt 0.400327 0.639638
vt 0.395969 0.645273
vt 0.382295 0.489594
vt 0.457799 0.678025
vt 0.308568 0.468151
vt 0.461811 0.683913
vt 0.454262 0.684210
vt 0.315761 0.468150
vt 0.427515 0.813620
vt 0.684659 0.560961
vt 0.453430 0.916569
vt 0.688835 0.555134
vt 0.455783 0.909340
vt 0.460387 0.914835
vt 0.516664 0.873975
vt 0.744929 0.513787
vt 0.512864 0.867895
vt 0.921273 0.242758
vt 0.520466 0.867895
vt 0.751818 0.511467
vt 0.192679 0.876866
vt 0.534513 0.849136
vt 0.185526 0.876369
vt 0.189993 0.870217
vt 0.541785 0.849136
vt 0.541460 0.779583
vt 0.534838 0.779582
vt 0.393932 0.500164
vt 0.538151 0.773147
vt 0.808681 0.246659
vt 0.751756 0.377503
vt 0.237079 0.372795
vt 0.744865 0.375190
vt 0.244283 0.370452
vt 0.242554 0.377383
vt 0.201832 0.433454
vt 0.195792 0.437218
vt 0.827643 0.172576
vt 0.827891 0.179733
vt 0.195785 0.429668
s 1
f 27/49/1 30/54/2 14/26/3 49/89/4 1/1/5
f 58/104/6 57/103/7 4/7/8 41/73/9 10/17/10
f 36/63/11 32/56/12 7/12/13 54/96/14 20/34/15
f 5/9/16 56/101/17 16/29/18 28/51/19 26/48/20
f 51/93/21 52/94/22 9/16/23 37/66/24 2/2/25
f 59/106/26 12/20/27 33/58/28 35/61/29 24/42/30
f 34/60/31 19/33/32 45/82/33 46/83/34 22/39/35
f 48/86/36 17/30/37 55/98/38 60/107/39 23/41/40
f 13/23/41 43/77/42 21/37/43 53/95/44 50/90/45
f 8/14/46 31/55/47 11/19/48 40/72/49 38/69/50
f 18/32/51 47/84/52 44/80/53 15/27/54 29/53/55
f 1/1/5 2/4/25 3/5/56
f 4/7/8 5/8/16 6/11/57
f 7/12/13 8/14/46 9/15/23
f 10/18/10 11/19/48 12/22/27
f 13/25/41 14/26/3 15/28/54
f 16/29/18 17/31/37 18/32/51
f 19/33/32 20/35/15 21/38/43
f 22/39/35 23/40/40 24/43/30
f 25/44/58 26/47/20 27/49/1
f 28/50/19 29/52/55 30/54/2
f 31/55/47 32/56/12 33/59/28
f 34/60/31 35/62/29 36/64/11
f 37/68/24 38/69/50 39/70/59
f 40/72/49 41/74/9 42/75/60
f 43/79/42 44/81/53 45/82/33
f 46/83/34 47/85/52 48/87/36
f 49/89/4 50/91/45 51/92/21
f 52/94/22 53/95/44 54/97/14
f 55/100/38 56/102/17 57/103/7
f 58/104/6 59/105/26 60/108/39
f 16/29/18 56/101/17 55/99/38 17/31/37
f 22/39/35 46/83/34 48/87/36 23/40/40
f 3/5/56 25/44/58 27/49/1 1/1/5
f 26/47/20 28/50/19 30/54/2 27/49/1
f 7/12/13 32/56/12 31/55/47 8/14/46
f 19/33/32 34/60/31 36/64/11 20/35/15
f 2/3/25 37/67/24 39/71/59 3/6/56
f 38/69/50 40/72/49 42/75/60 39/70/59
f 15/27/54 44/80/53 43/78/42 13/24/41
f 17/31/37 48/88/36 47/84/52 18/32/51
f 1/1/5 49/89/4 51/92/21 2/4/25
f 50/90/45 53/95/44 52/94/22 51/93/21
f 4/7/8 57/103/7 56/102/17 5/8/16
f 12/21/27 59/105/26 58/104/6 10/17/10
f 23/41/40 60/107/39 59/106/26 24/42/30
f 20/36/15 54/97/14 53/95/44 21/37/43
f 32/57/12 36/65/11 35/61/29 33/58/28
f 5/9/16 26/48/20 25/45/58 6/10/57
f 24/43/30 35/62/29 34/60/31 22/39/35
f 44/81/53 47/85/52 46/83/34 45/82/33
f 6/11/57 42/76/60 41/73/9 4/7/8
f 11/19/48 31/55/47 33/59/28 12/22/27
f 8/14/46 38/69/50 37/68/24 9/15/23
f 14/26/3 30/54/2 29/52/55 15/28/54
f 18/32/51 29/53/55 28/51/19 16/29/18
f 10/18/10 41/74/9 40/72/49 11/19/48
f 9/16/23 52/94/22 54/97/14 7/13/13
f 57/103/7 58/104/6 60/108/39 55/100/38
f 13/25/41 50/91/45 49/89/4 14/26/3
f 21/38/43 43/79/42 45/82/33 19/33/32
f 39/71/59 42/76/60 6/11/57 25/46/58 3/6/56
