# Blender 3.4.1
# www.blender.org
o octahedron
v 1.607538 -0.050148 -0.050148
v 1.607538 0.050148 -0.050148
v 1.607538 0.050148 0.050148
v 1.607538 -0.050148 0.050148
v -1.607538 0.050148 -0.050148
v -1.607538 -0.050148 -0.050148
v -1.607538 -0.050148 0.050148
v -1.607538 0.050148 0.050148
v 0.050148 -1.607538 0.050148
v -0.050148 -1.607538 0.050148
v -0.050148 -1.607538 -0.050148
v 0.050148 -1.607538 -0.050148
v -0.050148 1.607538 0.050148
v 0.050148 1.607538 0.050148
v 0.050148 1.607538 -0.050148
v -0.050148 1.607538 -0.050148
v -0.050148 -0.050148 -1.607538
v -0.050148 0.050148 -1.607538
v 0.050148 0.050148 -1.607538
v 0.050148 -0.050148 -1.607538
v 0.050148 0.050148 1.607538
v -0.050148 0.050148 1.607538
v -0.050148 -0.050148 1.607538
v 0.050148 -0.050148 1.607538
vn -0.5541 0.5540 0.6213
vn -0.5540 0.6213 0.5541
vn -0.6213 0.5541 0.5540
vn -0.5540 0.5541 -0.6213
vn -0.6213 0.5540 -0.5541
vn -0.5541 0.6213 -0.5540
vn 0.5540 -0.5541 -0.6213
vn 0.6213 -0.5540 -0.5541
vn 0.5541 -0.6213 -0.5540
vn 0.5540 0.5541 0.6213
vn 0.6213 0.5540 0.5541
vn 0.5541 0.6213 0.5540
vn -0.5541 -0.5540 -0.6213
vn -0.5540 -0.6213 -0.5541
vn -0.6213 -0.5541 -0.5540
vn -0.5540 -0.5541 0.6213
vn -0.6213 -0.5540 0.5541
vn -0.5541 -0.6213 0.5540
vn 0.5541 0.5540 -0.6213
vn 0.5540 0.6213 -0.5541
vn 0.6213 0.5541 -0.5540
vn 0.6213 -0.5541 0.5540
vn 0.5540 -0.6213 0.5541
vn 0.5541 -0.5540 0.6213
vt 0.585034 0.955132
vt 0.172036 0.815176
vt 0.663729 0.733453
vt 0.584189 0.961760
vt 0.576933 0.959831
vt 0.459052 0.895324
vt 0.670579 0.733479
vt 0.578862 0.952576
vt 0.459053 0.888473
vt 0.187525 0.483949
vt 0.402384 0.679371
vt 0.180675 0.488964
vt 0.180675 0.483950
vt 0.177249 0.483032
vt 0.180674 0.477099
vt 0.805174 0.502422
vt 0.408347 0.682742
vt 0.187525 0.477099
vt 0.654017 0.821171
vt 0.383847 0.758193
vt 0.377914 0.754768
vt 0.050398 0.401887
vt 0.381340 0.748835
vt 0.046973 0.407820
vt 0.387272 0.752261
vt 0.660002 0.824593
vt 0.040122 0.407820
vt 0.334323 0.813697
vt 0.674609 0.577132
vt 0.671161 0.583052
vt 0.665241 0.579603
vt 0.322459 0.813805
vt 0.664311 0.583025
vt 0.668689 0.573684
vt 0.328360 0.810326
vt 0.046975 0.558249
vt 0.251961 0.680742
vt 0.050401 0.564181
vt 0.044468 0.567606
vt 0.246060 0.684221
vt 0.735579 0.961753
vt 0.041043 0.561674
vt 0.040125 0.558249
vt 0.735568 0.954842
vt 0.187522 0.319820
vt 0.308623 0.895314
vt 0.801144 0.658769
vt 0.187522 0.326670
vt 0.804592 0.652850
vt 0.302692 0.885038
vt 0.180672 0.326670
vt 0.180672 0.319820
vt 0.308624 0.888464
s 1
f 22/49/1 13/29/2 8/16/3
f 18/37/4 5/11/5 16/35/6
f 20/44/7 1/1/8 12/26/9
f 21/47/10 3/7/11 14/30/12
f 17/36/13 11/24/14 6/14/15
f 23/51/16 7/15/17 10/22/18
f 19/40/19 15/32/20 2/2/21
f 1/1/8 2/4/21 3/5/11 4/8/22
f 5/10/5 6/13/15 7/15/17 8/18/3
f 9/20/23 10/21/18 11/23/14 12/25/9
f 13/29/2 14/30/12 15/31/20 16/34/6
f 17/36/13 18/38/4 19/39/19 20/42/7
f 21/45/10 22/48/1 23/51/16 24/52/24
f 4/8/22 9/19/23 12/26/9 1/1/8
f 8/17/3 13/28/2 16/35/6 5/11/5
f 11/24/14 17/36/13 20/43/7 12/27/9
f 3/6/11 21/46/10 24/53/24 4/9/22
f 9/20/23 24/53/24 23/50/16 10/21/18
f 7/15/17 23/51/16 22/48/1 8/18/3
f 15/32/20 19/40/19 18/37/4 16/35/6
f 2/3/21 15/33/20 14/30/12 3/7/11
f 13/29/2 22/49/1 21/47/10 14/30/12
f 6/14/15 11/24/14 10/22/18 7/15/17
f 1/1/8 20/44/7 19/41/19 2/4/21
f 5/12/5 18/38/4 17/36/13 6/14/15
f 24/53/24 9/20/23 4/9/22
